{
    "asset" : {
        "generator" : "Khronos glTF Blender I/O v1.8.19",
        "version" : "2.0"
    },
    "scene" : 0,
    "scenes" : [
        {
            "name" : "Scene",
            "nodes" : [
                0,
                1,
                2,
                3,
                4
            ]
        }
    ],
    "nodes" : [
        {
            "mesh" : 0,
            "name" : "Circle"
        },
        {
            "mesh" : 1,
            "name" : "Circle.001",
            "translation" : [
                -0.056952670216560364,
                0.04762376844882965,
                0.04041566699743271
            ]
        },
        {
            "mesh" : 2,
            "name" : "Cylinder",
            "rotation" : [
                0.2588190734386444,
                0,
                0,
                0.965925931930542
            ],
            "scale" : [
                1.0456455945968628,
                1.659848690032959,
                0.7332261800765991
            ],
            "translation" : [
                0,
                0.043602682650089264,
                0.023399677127599716
            ]
        },
        {
            "mesh" : 3,
            "name" : "Cylinder.001",
            "rotation" : [
                0.2588190734386444,
                0,
                0,
                0.965925931930542
            ],
            "scale" : [
                1.0456455945968628,
                1.659848690032959,
                1
            ],
            "translation" : [
                0,
                0.04360269010066986,
                0.023399678990244865
            ]
        },
        {
            "mesh" : 4,
            "name" : "Cylinder.002",
            "rotation" : [
                0.2588190734386444,
                0,
                0,
                0.965925931930542
            ],
            "scale" : [
                1.0456455945968628,
                1.659848690032959,
                1
            ],
            "translation" : [
                0,
                0.04360269010066986,
                0.023399678990244865
            ]
        }
    ],
    "materials" : [
        {
            "doubleSided" : true,
            "name" : "atlas_colors",
            "pbrMetallicRoughness" : {
                "baseColorTexture" : {
                    "index" : 0
                },
                "metallicFactor" : 0,
                "roughnessFactor" : 0.6499999761581421
            }
        }
    ],
    "meshes" : [
        {
            "name" : "Circle",
            "primitives" : [
                {
                    "attributes" : {
                        "POSITION" : 0,
                        "NORMAL" : 1,
                        "TEXCOORD_0" : 2
                    },
                    "indices" : 3,
                    "material" : 0
                }
            ]
        },
        {
            "name" : "Circle.001",
            "primitives" : [
                {
                    "attributes" : {
                        "POSITION" : 4,
                        "NORMAL" : 5,
                        "TEXCOORD_0" : 6
                    },
                    "indices" : 7,
                    "material" : 0
                }
            ]
        },
        {
            "name" : "Cylinder",
            "primitives" : [
                {
                    "attributes" : {
                        "POSITION" : 8,
                        "NORMAL" : 9,
                        "TEXCOORD_0" : 10
                    },
                    "indices" : 11,
                    "material" : 0
                }
            ]
        },
        {
            "name" : "Cylinder.001",
            "primitives" : [
                {
                    "attributes" : {
                        "POSITION" : 12,
                        "NORMAL" : 13,
                        "TEXCOORD_0" : 14
                    },
                    "indices" : 15,
                    "material" : 0
                }
            ]
        },
        {
            "name" : "Cylinder.002",
            "primitives" : [
                {
                    "attributes" : {
                        "POSITION" : 16,
                        "NORMAL" : 17,
                        "TEXCOORD_0" : 18
                    },
                    "indices" : 19,
                    "material" : 0
                }
            ]
        }
    ],
    "textures" : [
        {
            "sampler" : 0,
            "source" : 0
        }
    ],
    "images" : [
        {
            "mimeType" : "image/jpeg",
            "name" : "atlas_colors_diffuse",
            "uri" : "atlas_colors_diffuse.jpg"
        }
    ],
    "accessors" : [
        {
            "bufferView" : 0,
            "componentType" : 5126,
            "count" : 1755,
            "max" : [
                0.07262463867664337,
                0.10574440658092499,
                0.03752272576093674
            ],
            "min" : [
                -0.07262463867664337,
                0.026644757017493248,
                -0.03884635493159294
            ],
            "type" : "VEC3"
        },
        {
            "bufferView" : 1,
            "componentType" : 5126,
            "count" : 1755,
            "type" : "VEC3"
        },
        {
            "bufferView" : 2,
            "componentType" : 5126,
            "count" : 1755,
            "type" : "VEC2"
        },
        {
            "bufferView" : 3,
            "componentType" : 5123,
            "count" : 5610,
            "type" : "SCALAR"
        },
        {
            "bufferView" : 4,
            "componentType" : 5126,
            "count" : 1668,
            "max" : [
                0.14436441659927368,
                0.036011952906847,
                0.001399993197992444
            ],
            "min" : [
                -0.03045908361673355,
                -0.036011952906847,
                -0.0030019544064998627
            ],
            "type" : "VEC3"
        },
        {
            "bufferView" : 5,
            "componentType" : 5126,
            "count" : 1668,
            "type" : "VEC3"
        },
        {
            "bufferView" : 6,
            "componentType" : 5126,
            "count" : 1668,
            "type" : "VEC2"
        },
        {
            "bufferView" : 7,
            "componentType" : 5123,
            "count" : 5088,
            "type" : "SCALAR"
        },
        {
            "bufferView" : 8,
            "componentType" : 5126,
            "count" : 88,
            "max" : [
                0.01329053658992052,
                0.014085433445870876,
                -0.0009488754440099001
            ],
            "min" : [
                -0.013225656934082508,
                -0.013214820995926857,
                -0.01987137272953987
            ],
            "type" : "VEC3"
        },
        {
            "bufferView" : 9,
            "componentType" : 5126,
            "count" : 88,
            "type" : "VEC3"
        },
        {
            "bufferView" : 10,
            "componentType" : 5126,
            "count" : 88,
            "type" : "VEC2"
        },
        {
            "bufferView" : 11,
            "componentType" : 5123,
            "count" : 204,
            "type" : "SCALAR"
        },
        {
            "bufferView" : 12,
            "componentType" : 5126,
            "count" : 144,
            "max" : [
                0.030556203797459602,
                0.014085428789258003,
                0.011982142925262451
            ],
            "min" : [
                -0.030556203797459602,
                -0.013214822858572006,
                -0.000501900736708194
            ],
            "type" : "VEC3"
        },
        {
            "bufferView" : 13,
            "componentType" : 5126,
            "count" : 144,
            "type" : "VEC3"
        },
        {
            "bufferView" : 14,
            "componentType" : 5126,
            "count" : 144,
            "type" : "VEC2"
        },
        {
            "bufferView" : 15,
            "componentType" : 5123,
            "count" : 396,
            "type" : "SCALAR"
        },
        {
            "bufferView" : 16,
            "componentType" : 5126,
            "count" : 60,
            "max" : [
                0.01122751273214817,
                0.01281822845339775,
                0.010861173272132874
            ],
            "min" : [
                -0.01122751273214817,
                -0.011947622522711754,
                -0.0003275820054113865
            ],
            "type" : "VEC3"
        },
        {
            "bufferView" : 17,
            "componentType" : 5126,
            "count" : 60,
            "type" : "VEC3"
        },
        {
            "bufferView" : 18,
            "componentType" : 5126,
            "count" : 60,
            "type" : "VEC2"
        },
        {
            "bufferView" : 19,
            "componentType" : 5123,
            "count" : 156,
            "type" : "SCALAR"
        }
    ],
    "bufferViews" : [
        {
            "buffer" : 0,
            "byteLength" : 21060,
            "byteOffset" : 0
        },
        {
            "buffer" : 0,
            "byteLength" : 21060,
            "byteOffset" : 21060
        },
        {
            "buffer" : 0,
            "byteLength" : 14040,
            "byteOffset" : 42120
        },
        {
            "buffer" : 0,
            "byteLength" : 11220,
            "byteOffset" : 56160
        },
        {
            "buffer" : 0,
            "byteLength" : 20016,
            "byteOffset" : 67380
        },
        {
            "buffer" : 0,
            "byteLength" : 20016,
            "byteOffset" : 87396
        },
        {
            "buffer" : 0,
            "byteLength" : 13344,
            "byteOffset" : 107412
        },
        {
            "buffer" : 0,
            "byteLength" : 10176,
            "byteOffset" : 120756
        },
        {
            "buffer" : 0,
            "byteLength" : 1056,
            "byteOffset" : 130932
        },
        {
            "buffer" : 0,
            "byteLength" : 1056,
            "byteOffset" : 131988
        },
        {
            "buffer" : 0,
            "byteLength" : 704,
            "byteOffset" : 133044
        },
        {
            "buffer" : 0,
            "byteLength" : 408,
            "byteOffset" : 133748
        },
        {
            "buffer" : 0,
            "byteLength" : 1728,
            "byteOffset" : 134156
        },
        {
            "buffer" : 0,
            "byteLength" : 1728,
            "byteOffset" : 135884
        },
        {
            "buffer" : 0,
            "byteLength" : 1152,
            "byteOffset" : 137612
        },
        {
            "buffer" : 0,
            "byteLength" : 792,
            "byteOffset" : 138764
        },
        {
            "buffer" : 0,
            "byteLength" : 720,
            "byteOffset" : 139556
        },
        {
            "buffer" : 0,
            "byteLength" : 720,
            "byteOffset" : 140276
        },
        {
            "buffer" : 0,
            "byteLength" : 480,
            "byteOffset" : 140996
        },
        {
            "buffer" : 0,
            "byteLength" : 312,
            "byteOffset" : 141476
        }
    ],
    "samplers" : [
        {
            "magFilter" : 9729,
            "minFilter" : 9987
        }
    ],
    "buffers" : [
        {
            "byteLength" : 141788,
            "uri" : "loud-bicycle-classic-horn.bin"
        }
    ]
}
