{
    "asset" : {
        "generator" : "Khronos glTF Blender I/O v1.8.19",
        "version" : "2.0"
    },
    "scene" : 0,
    "scenes" : [
        {
            "name" : "Scene",
            "nodes" : [
                0,
                1
            ]
        }
    ],
    "nodes" : [
        {
            "mesh" : 0,
            "name" : "loud-bicycle-mini-horn"
        },
        {
            "mesh" : 1,
            "name" : "path4996",
            "rotation" : [
                0.7071068286895752,
                0,
                0,
                0.7071068286895752
            ],
            "scale" : [
                -1,
                1,
                1
            ],
            "translation" : [
                -0.0012771927285939455,
                0.05769650638103485,
                -0.042431093752384186
            ]
        }
    ],
    "materials" : [
        {
            "doubleSided" : true,
            "name" : "atlas_colors",
            "pbrMetallicRoughness" : {
                "baseColorTexture" : {
                    "index" : 0
                },
                "metallicFactor" : 0,
                "roughnessFactor" : 0.6499999761581421
            }
        }
    ],
    "meshes" : [
        {
            "name" : "Plane.002",
            "primitives" : [
                {
                    "attributes" : {
                        "POSITION" : 0,
                        "NORMAL" : 1,
                        "TEXCOORD_0" : 2
                    },
                    "indices" : 3,
                    "material" : 0
                }
            ]
        },
        {
            "name" : "path4996",
            "primitives" : [
                {
                    "attributes" : {
                        "POSITION" : 4,
                        "NORMAL" : 5,
                        "TEXCOORD_0" : 6
                    },
                    "indices" : 7,
                    "material" : 0
                }
            ]
        }
    ],
    "textures" : [
        {
            "sampler" : 0,
            "source" : 0
        }
    ],
    "images" : [
        {
            "mimeType" : "image/jpeg",
            "name" : "atlas_colors_diffuse",
            "uri" : "atlas_colors_diffuse.jpg"
        }
    ],
    "accessors" : [
        {
            "bufferView" : 0,
            "componentType" : 5126,
            "count" : 1498,
            "max" : [
                0.0904366746544838,
                0.15900154411792755,
                0.02212720923125744
            ],
            "min" : [
                -0.09043671935796738,
                0,
                -0.046998657286167145
            ],
            "type" : "VEC3"
        },
        {
            "bufferView" : 1,
            "componentType" : 5126,
            "count" : 1498,
            "type" : "VEC3"
        },
        {
            "bufferView" : 2,
            "componentType" : 5126,
            "count" : 1498,
            "type" : "VEC2"
        },
        {
            "bufferView" : 3,
            "componentType" : 5123,
            "count" : 4272,
            "type" : "SCALAR"
        },
        {
            "bufferView" : 4,
            "componentType" : 5126,
            "count" : 426,
            "max" : [
                0.03140060976147652,
                0.0033683995716273785,
                0.029363058507442474
            ],
            "min" : [
                -0.03406388685107231,
                -0.004168686922639608,
                -0.030622102320194244
            ],
            "type" : "VEC3"
        },
        {
            "bufferView" : 5,
            "componentType" : 5126,
            "count" : 426,
            "type" : "VEC3"
        },
        {
            "bufferView" : 6,
            "componentType" : 5126,
            "count" : 426,
            "type" : "VEC2"
        },
        {
            "bufferView" : 7,
            "componentType" : 5123,
            "count" : 426,
            "type" : "SCALAR"
        }
    ],
    "bufferViews" : [
        {
            "buffer" : 0,
            "byteLength" : 17976,
            "byteOffset" : 0
        },
        {
            "buffer" : 0,
            "byteLength" : 17976,
            "byteOffset" : 17976
        },
        {
            "buffer" : 0,
            "byteLength" : 11984,
            "byteOffset" : 35952
        },
        {
            "buffer" : 0,
            "byteLength" : 8544,
            "byteOffset" : 47936
        },
        {
            "buffer" : 0,
            "byteLength" : 5112,
            "byteOffset" : 56480
        },
        {
            "buffer" : 0,
            "byteLength" : 5112,
            "byteOffset" : 61592
        },
        {
            "buffer" : 0,
            "byteLength" : 3408,
            "byteOffset" : 66704
        },
        {
            "buffer" : 0,
            "byteLength" : 852,
            "byteOffset" : 70112
        }
    ],
    "samplers" : [
        {
            "magFilter" : 9729,
            "minFilter" : 9987
        }
    ],
    "buffers" : [
        {
            "byteLength" : 70964,
            "uri" : "loud-bicycle-mini-horn.bin"
        }
    ]
}
