{
    "asset" : {
        "generator" : "Khronos glTF Blender I/O v1.6.16",
        "version" : "2.0"
    },
    "scene" : 0,
    "scenes" : [
        {
            "name" : "Scene",
            "nodes" : [
                0,
                1,
                2,
                3,
                4,
                5
            ]
        }
    ],
    "nodes" : [
        {
            "mesh" : 0,
            "name" : "flowers",
            "translation" : [
                0.0013304942985996604,
                0,
                0.0013304980238899589
            ]
        },
        {
            "mesh" : 1,
            "name" : "planting-strip",
            "translation" : [
                0.001330493949353695,
                0,
                -0.006652474869042635
            ]
        },
        {
            "mesh" : 2,
            "name" : "planter-box",
            "translation" : [
                0.0013304942985996604,
                0,
                0.0013304942985996604
            ]
        },
        {
            "mesh" : 3,
            "name" : "barricade",
            "translation" : [
                0.0013304942985996604,
                0,
                0.0013304942985996604
            ]
        },
        {
            "mesh" : 4,
            "name" : "jersey-barrier-concrete",
            "translation" : [
                0.0013304942985996604,
                0,
                0.0013304942985996604
            ]
        },
        {
            "mesh" : 5,
            "name" : "jersey-barrier-plastic",
            "translation" : [
                0.0013304942985996604,
                0,
                0.0013304942985996604
            ]
        }
    ],
    "materials" : [
        {
            "doubleSided" : true,
            "name" : "atlas_colors",
            "pbrMetallicRoughness" : {
                "baseColorTexture" : {
                    "index" : 0
                },
                "metallicFactor" : 0,
                "roughnessFactor" : 0.6499999761581421
            }
        }
    ],
    "meshes" : [
        {
            "name" : "flowers",
            "primitives" : [
                {
                    "attributes" : {
                        "POSITION" : 0,
                        "NORMAL" : 1,
                        "TEXCOORD_0" : 2,
                        "TEXCOORD_1" : 3
                    },
                    "indices" : 4,
                    "material" : 0
                }
            ]
        },
        {
            "name" : "planting-strip",
            "primitives" : [
                {
                    "attributes" : {
                        "POSITION" : 5,
                        "NORMAL" : 6,
                        "TEXCOORD_0" : 7,
                        "TEXCOORD_1" : 8
                    },
                    "indices" : 9,
                    "material" : 0
                }
            ]
        },
        {
            "name" : "planter-box",
            "primitives" : [
                {
                    "attributes" : {
                        "POSITION" : 10,
                        "NORMAL" : 11,
                        "TEXCOORD_0" : 12
                    },
                    "indices" : 13,
                    "material" : 0
                }
            ]
        },
        {
            "name" : "barricade",
            "primitives" : [
                {
                    "attributes" : {
                        "POSITION" : 14,
                        "NORMAL" : 15,
                        "TEXCOORD_0" : 16
                    },
                    "indices" : 17,
                    "material" : 0
                }
            ]
        },
        {
            "name" : "jersey-barrier-concrete",
            "primitives" : [
                {
                    "attributes" : {
                        "POSITION" : 18,
                        "NORMAL" : 19,
                        "TEXCOORD_0" : 20,
                        "TEXCOORD_1" : 21
                    },
                    "indices" : 22,
                    "material" : 0
                }
            ]
        },
        {
            "name" : "jersey-barrier-plastic",
            "primitives" : [
                {
                    "attributes" : {
                        "POSITION" : 23,
                        "NORMAL" : 24,
                        "TEXCOORD_0" : 25,
                        "TEXCOORD_1" : 26
                    },
                    "indices" : 27,
                    "material" : 0
                }
            ]
        }
    ],
    "textures" : [
        {
            "sampler" : 0,
            "source" : 0
        }
    ],
    "images" : [
        {
            "mimeType" : "image/jpeg",
            "name" : "atlas_colors_diffuse",
            "uri" : "atlas_colors_diffuse.jpg"
        }
    ],
    "accessors" : [
        {
            "bufferView" : 0,
            "componentType" : 5126,
            "count" : 1554,
            "max" : [
                0.2924390733242035,
                0.346477210521698,
                0.7925763726234436
            ],
            "min" : [
                -0.2924388349056244,
                -5.8061217538041415e-18,
                -0.7303164005279541
            ],
            "type" : "VEC3"
        },
        {
            "bufferView" : 1,
            "componentType" : 5126,
            "count" : 1554,
            "type" : "VEC3"
        },
        {
            "bufferView" : 2,
            "componentType" : 5126,
            "count" : 1554,
            "type" : "VEC2"
        },
        {
            "bufferView" : 3,
            "componentType" : 5126,
            "count" : 1554,
            "type" : "VEC2"
        },
        {
            "bufferView" : 4,
            "componentType" : 5123,
            "count" : 1908,
            "type" : "SCALAR"
        },
        {
            "bufferView" : 5,
            "componentType" : 5126,
            "count" : 936,
            "max" : [
                0.25366854667663574,
                0.40419304370880127,
                0.9786808490753174
            ],
            "min" : [
                -0.25366878509521484,
                -5.8644239249187166e-18,
                -1.1281532049179077
            ],
            "type" : "VEC3"
        },
        {
            "bufferView" : 6,
            "componentType" : 5126,
            "count" : 936,
            "type" : "VEC3"
        },
        {
            "bufferView" : 7,
            "componentType" : 5126,
            "count" : 936,
            "type" : "VEC2"
        },
        {
            "bufferView" : 8,
            "componentType" : 5126,
            "count" : 936,
            "type" : "VEC2"
        },
        {
            "bufferView" : 9,
            "componentType" : 5123,
            "count" : 1128,
            "type" : "SCALAR"
        },
        {
            "bufferView" : 10,
            "componentType" : 5126,
            "count" : 2022,
            "max" : [
                0.20497596263885498,
                0.7433149814605713,
                1.0222737789154053
            ],
            "min" : [
                -0.16469806432724,
                -2.7863999108035387e-08,
                -0.944474995136261
            ],
            "type" : "VEC3"
        },
        {
            "bufferView" : 11,
            "componentType" : 5126,
            "count" : 2022,
            "type" : "VEC3"
        },
        {
            "bufferView" : 12,
            "componentType" : 5126,
            "count" : 2022,
            "type" : "VEC2"
        },
        {
            "bufferView" : 13,
            "componentType" : 5123,
            "count" : 2424,
            "type" : "SCALAR"
        },
        {
            "bufferView" : 14,
            "componentType" : 5126,
            "count" : 430,
            "max" : [
                0.3319780230522156,
                0.9825270175933838,
                0.7173839807510376
            ],
            "min" : [
                -0.33198902010917664,
                -5.408608316770369e-08,
                -0.7173770070075989
            ],
            "type" : "VEC3"
        },
        {
            "bufferView" : 15,
            "componentType" : 5126,
            "count" : 430,
            "type" : "VEC3"
        },
        {
            "bufferView" : 16,
            "componentType" : 5126,
            "count" : 430,
            "type" : "VEC2"
        },
        {
            "bufferView" : 17,
            "componentType" : 5123,
            "count" : 786,
            "type" : "SCALAR"
        },
        {
            "bufferView" : 18,
            "componentType" : 5126,
            "count" : 368,
            "max" : [
                0.3271675705909729,
                1.018127679824829,
                1.1452045440673828
            ],
            "min" : [
                -0.32716765999794006,
                -1.780574194754081e-07,
                -1.145207166671753
            ],
            "type" : "VEC3"
        },
        {
            "bufferView" : 19,
            "componentType" : 5126,
            "count" : 368,
            "type" : "VEC3"
        },
        {
            "bufferView" : 20,
            "componentType" : 5126,
            "count" : 368,
            "type" : "VEC2"
        },
        {
            "bufferView" : 21,
            "componentType" : 5126,
            "count" : 368,
            "type" : "VEC2"
        },
        {
            "bufferView" : 22,
            "componentType" : 5123,
            "count" : 624,
            "type" : "SCALAR"
        },
        {
            "bufferView" : 23,
            "componentType" : 5126,
            "count" : 588,
            "max" : [
                0.3271675109863281,
                1.01812744140625,
                0.8984062075614929
            ],
            "min" : [
                -0.3271676003932953,
                -1.780574336862628e-07,
                -0.9019381999969482
            ],
            "type" : "VEC3"
        },
        {
            "bufferView" : 24,
            "componentType" : 5126,
            "count" : 588,
            "type" : "VEC3"
        },
        {
            "bufferView" : 25,
            "componentType" : 5126,
            "count" : 588,
            "type" : "VEC2"
        },
        {
            "bufferView" : 26,
            "componentType" : 5126,
            "count" : 588,
            "type" : "VEC2"
        },
        {
            "bufferView" : 27,
            "componentType" : 5123,
            "count" : 1092,
            "type" : "SCALAR"
        }
    ],
    "bufferViews" : [
        {
            "buffer" : 0,
            "byteLength" : 18648,
            "byteOffset" : 0
        },
        {
            "buffer" : 0,
            "byteLength" : 18648,
            "byteOffset" : 18648
        },
        {
            "buffer" : 0,
            "byteLength" : 12432,
            "byteOffset" : 37296
        },
        {
            "buffer" : 0,
            "byteLength" : 12432,
            "byteOffset" : 49728
        },
        {
            "buffer" : 0,
            "byteLength" : 3816,
            "byteOffset" : 62160
        },
        {
            "buffer" : 0,
            "byteLength" : 11232,
            "byteOffset" : 65976
        },
        {
            "buffer" : 0,
            "byteLength" : 11232,
            "byteOffset" : 77208
        },
        {
            "buffer" : 0,
            "byteLength" : 7488,
            "byteOffset" : 88440
        },
        {
            "buffer" : 0,
            "byteLength" : 7488,
            "byteOffset" : 95928
        },
        {
            "buffer" : 0,
            "byteLength" : 2256,
            "byteOffset" : 103416
        },
        {
            "buffer" : 0,
            "byteLength" : 24264,
            "byteOffset" : 105672
        },
        {
            "buffer" : 0,
            "byteLength" : 24264,
            "byteOffset" : 129936
        },
        {
            "buffer" : 0,
            "byteLength" : 16176,
            "byteOffset" : 154200
        },
        {
            "buffer" : 0,
            "byteLength" : 4848,
            "byteOffset" : 170376
        },
        {
            "buffer" : 0,
            "byteLength" : 5160,
            "byteOffset" : 175224
        },
        {
            "buffer" : 0,
            "byteLength" : 5160,
            "byteOffset" : 180384
        },
        {
            "buffer" : 0,
            "byteLength" : 3440,
            "byteOffset" : 185544
        },
        {
            "buffer" : 0,
            "byteLength" : 1572,
            "byteOffset" : 188984
        },
        {
            "buffer" : 0,
            "byteLength" : 4416,
            "byteOffset" : 190556
        },
        {
            "buffer" : 0,
            "byteLength" : 4416,
            "byteOffset" : 194972
        },
        {
            "buffer" : 0,
            "byteLength" : 2944,
            "byteOffset" : 199388
        },
        {
            "buffer" : 0,
            "byteLength" : 2944,
            "byteOffset" : 202332
        },
        {
            "buffer" : 0,
            "byteLength" : 1248,
            "byteOffset" : 205276
        },
        {
            "buffer" : 0,
            "byteLength" : 7056,
            "byteOffset" : 206524
        },
        {
            "buffer" : 0,
            "byteLength" : 7056,
            "byteOffset" : 213580
        },
        {
            "buffer" : 0,
            "byteLength" : 4704,
            "byteOffset" : 220636
        },
        {
            "buffer" : 0,
            "byteLength" : 4704,
            "byteOffset" : 225340
        },
        {
            "buffer" : 0,
            "byteLength" : 2184,
            "byteOffset" : 230044
        }
    ],
    "samplers" : [
        {
            "magFilter" : 9729,
            "minFilter" : 9987
        }
    ],
    "buffers" : [
        {
            "byteLength" : 232228,
            "uri" : "dividers.bin"
        }
    ]
}
