{
    "asset" : {
        "generator" : "Khronos glTF Blender I/O v1.6.16",
        "version" : "2.0"
    },
    "scene" : 0,
    "scenes" : [
        {
            "name" : "Scene",
            "nodes" : [
                0,
                1,
                2,
                3,
                4,
                5,
                6,
                7,
                8,
                9
            ]
        }
    ],
    "nodes" : [
        {
            "mesh" : 0,
            "name" : "flowers"
        },
        {
            "mesh" : 1,
            "name" : "planting-strip"
        },
        {
            "mesh" : 2,
            "name" : "bush"
        },
        {
            "mesh" : 3,
            "name" : "planter-box"
        },
        {
            "mesh" : 4,
            "name" : "bollard"
        },
        {
            "mesh" : 5,
            "name" : "dome"
        },
        {
            "mesh" : 6,
            "name" : "barricade"
        },
        {
            "mesh" : 7,
            "name" : "traffic-cone"
        },
        {
            "mesh" : 8,
            "name" : "jersey-barrier-concrete"
        },
        {
            "mesh" : 9,
            "name" : "jersey-barrier-plastic"
        }
    ],
    "materials" : [
        {
            "doubleSided" : true,
            "name" : "atlas_colors",
            "pbrMetallicRoughness" : {
                "baseColorTexture" : {
                    "index" : 0
                },
                "metallicFactor" : 0,
                "roughnessFactor" : 0.6499999761581421
            }
        }
    ],
    "meshes" : [
        {
            "name" : "flowers",
            "primitives" : [
                {
                    "attributes" : {
                        "POSITION" : 0,
                        "NORMAL" : 1,
                        "TEXCOORD_0" : 2,
                        "TEXCOORD_1" : 3
                    },
                    "indices" : 4,
                    "material" : 0
                }
            ]
        },
        {
            "name" : "planting-strip",
            "primitives" : [
                {
                    "attributes" : {
                        "POSITION" : 5,
                        "NORMAL" : 6,
                        "TEXCOORD_0" : 7,
                        "TEXCOORD_1" : 8
                    },
                    "indices" : 9,
                    "material" : 0
                }
            ]
        },
        {
            "name" : "Mesh",
            "primitives" : [
                {
                    "attributes" : {
                        "POSITION" : 10,
                        "NORMAL" : 11,
                        "TEXCOORD_0" : 12
                    },
                    "indices" : 13,
                    "material" : 0
                }
            ]
        },
        {
            "name" : "planter-box",
            "primitives" : [
                {
                    "attributes" : {
                        "POSITION" : 14,
                        "NORMAL" : 15,
                        "TEXCOORD_0" : 16
                    },
                    "indices" : 17,
                    "material" : 0
                }
            ]
        },
        {
            "name" : "bollard",
            "primitives" : [
                {
                    "attributes" : {
                        "POSITION" : 18,
                        "NORMAL" : 19,
                        "TEXCOORD_0" : 20
                    },
                    "indices" : 21,
                    "material" : 0
                }
            ]
        },
        {
            "name" : "dome",
            "primitives" : [
                {
                    "attributes" : {
                        "POSITION" : 22,
                        "NORMAL" : 23,
                        "TEXCOORD_0" : 24
                    },
                    "indices" : 25,
                    "material" : 0
                }
            ]
        },
        {
            "name" : "barricade",
            "primitives" : [
                {
                    "attributes" : {
                        "POSITION" : 26,
                        "NORMAL" : 27,
                        "TEXCOORD_0" : 28
                    },
                    "indices" : 29,
                    "material" : 0
                }
            ]
        },
        {
            "name" : "traffic-cone",
            "primitives" : [
                {
                    "attributes" : {
                        "POSITION" : 30,
                        "NORMAL" : 31,
                        "TEXCOORD_0" : 32
                    },
                    "indices" : 33,
                    "material" : 0
                }
            ]
        },
        {
            "name" : "jersey-barrier-concrete",
            "primitives" : [
                {
                    "attributes" : {
                        "POSITION" : 34,
                        "NORMAL" : 35,
                        "TEXCOORD_0" : 36,
                        "TEXCOORD_1" : 37
                    },
                    "indices" : 38,
                    "material" : 0
                }
            ]
        },
        {
            "name" : "jersey-barrier-plastic",
            "primitives" : [
                {
                    "attributes" : {
                        "POSITION" : 39,
                        "NORMAL" : 40,
                        "TEXCOORD_0" : 41,
                        "TEXCOORD_1" : 42
                    },
                    "indices" : 43,
                    "material" : 0
                }
            ]
        }
    ],
    "textures" : [
        {
            "sampler" : 0,
            "source" : 0
        }
    ],
    "images" : [
        {
            "mimeType" : "image/jpeg",
            "name" : "atlas_colors_diffuse",
            "uri" : "atlas_colors_diffuse.jpg"
        }
    ],
    "accessors" : [
        {
            "bufferView" : 0,
            "componentType" : 5126,
            "count" : 1554,
            "max" : [
                0.2924390733242035,
                0.346477210521698,
                0.7925763726234436
            ],
            "min" : [
                -0.2924388349056244,
                -5.8061217538041415e-18,
                -0.7303164005279541
            ],
            "type" : "VEC3"
        },
        {
            "bufferView" : 1,
            "componentType" : 5126,
            "count" : 1554,
            "type" : "VEC3"
        },
        {
            "bufferView" : 2,
            "componentType" : 5126,
            "count" : 1554,
            "type" : "VEC2"
        },
        {
            "bufferView" : 3,
            "componentType" : 5126,
            "count" : 1554,
            "type" : "VEC2"
        },
        {
            "bufferView" : 4,
            "componentType" : 5123,
            "count" : 1908,
            "type" : "SCALAR"
        },
        {
            "bufferView" : 5,
            "componentType" : 5126,
            "count" : 936,
            "max" : [
                0.1902514100074768,
                0.20209652185440063,
                0.734010636806488
            ],
            "min" : [
                -0.19025158882141113,
                -2.9322119624593583e-18,
                -0.8461148738861084
            ],
            "type" : "VEC3"
        },
        {
            "bufferView" : 6,
            "componentType" : 5126,
            "count" : 936,
            "type" : "VEC3"
        },
        {
            "bufferView" : 7,
            "componentType" : 5126,
            "count" : 936,
            "type" : "VEC2"
        },
        {
            "bufferView" : 8,
            "componentType" : 5126,
            "count" : 936,
            "type" : "VEC2"
        },
        {
            "bufferView" : 9,
            "componentType" : 5123,
            "count" : 1128,
            "type" : "SCALAR"
        },
        {
            "bufferView" : 10,
            "componentType" : 5126,
            "count" : 588,
            "max" : [
                0.3002306818962097,
                0.43554970622062683,
                0.2921246588230133
            ],
            "min" : [
                -0.30023160576820374,
                -6.964500975925603e-09,
                -0.29212459921836853
            ],
            "type" : "VEC3"
        },
        {
            "bufferView" : 11,
            "componentType" : 5126,
            "count" : 588,
            "type" : "VEC3"
        },
        {
            "bufferView" : 12,
            "componentType" : 5126,
            "count" : 588,
            "type" : "VEC2"
        },
        {
            "bufferView" : 13,
            "componentType" : 5123,
            "count" : 882,
            "type" : "SCALAR"
        },
        {
            "bufferView" : 14,
            "componentType" : 5126,
            "count" : 2022,
            "max" : [
                0.30746394395828247,
                0.8919780254364014,
                1.2267285585403442
            ],
            "min" : [
                -0.24704709649085999,
                -3.343680177181341e-08,
                -1.133370041847229
            ],
            "type" : "VEC3"
        },
        {
            "bufferView" : 15,
            "componentType" : 5126,
            "count" : 2022,
            "type" : "VEC3"
        },
        {
            "bufferView" : 16,
            "componentType" : 5126,
            "count" : 2022,
            "type" : "VEC2"
        },
        {
            "bufferView" : 17,
            "componentType" : 5123,
            "count" : 2424,
            "type" : "SCALAR"
        },
        {
            "bufferView" : 18,
            "componentType" : 5126,
            "count" : 409,
            "max" : [
                0.09861256182193756,
                1.2809998989105225,
                0.10013380646705627
            ],
            "min" : [
                -0.09861256927251816,
                -8.881784197001252e-16,
                -0.10013380646705627
            ],
            "type" : "VEC3"
        },
        {
            "bufferView" : 19,
            "componentType" : 5126,
            "count" : 409,
            "type" : "VEC3"
        },
        {
            "bufferView" : 20,
            "componentType" : 5126,
            "count" : 409,
            "type" : "VEC2"
        },
        {
            "bufferView" : 21,
            "componentType" : 5123,
            "count" : 1083,
            "type" : "SCALAR"
        },
        {
            "bufferView" : 22,
            "componentType" : 5126,
            "count" : 264,
            "max" : [
                0.05079999938607216,
                0.027184784412384033,
                0.05079999938607216
            ],
            "min" : [
                -0.05079999938607216,
                0,
                -0.05079999938607216
            ],
            "type" : "VEC3"
        },
        {
            "bufferView" : 23,
            "componentType" : 5126,
            "count" : 264,
            "type" : "VEC3"
        },
        {
            "bufferView" : 24,
            "componentType" : 5126,
            "count" : 264,
            "type" : "VEC2"
        },
        {
            "bufferView" : 25,
            "componentType" : 5123,
            "count" : 480,
            "type" : "SCALAR"
        },
        {
            "bufferView" : 26,
            "componentType" : 5126,
            "count" : 430,
            "max" : [
                0.3319780230522156,
                0.9825270175933838,
                0.7173839807510376
            ],
            "min" : [
                -0.33198902010917664,
                -5.408608316770369e-08,
                -0.7173770070075989
            ],
            "type" : "VEC3"
        },
        {
            "bufferView" : 27,
            "componentType" : 5126,
            "count" : 430,
            "type" : "VEC3"
        },
        {
            "bufferView" : 28,
            "componentType" : 5126,
            "count" : 430,
            "type" : "VEC2"
        },
        {
            "bufferView" : 29,
            "componentType" : 5123,
            "count" : 786,
            "type" : "SCALAR"
        },
        {
            "bufferView" : 30,
            "componentType" : 5126,
            "count" : 322,
            "max" : [
                0.1575389951467514,
                0.5735352635383606,
                0.15753480792045593
            ],
            "min" : [
                -0.1575252115726471,
                -2.5665681135933482e-08,
                -0.15753360092639923
            ],
            "type" : "VEC3"
        },
        {
            "bufferView" : 31,
            "componentType" : 5126,
            "count" : 322,
            "type" : "VEC3"
        },
        {
            "bufferView" : 32,
            "componentType" : 5126,
            "count" : 322,
            "type" : "VEC2"
        },
        {
            "bufferView" : 33,
            "componentType" : 5123,
            "count" : 552,
            "type" : "SCALAR"
        },
        {
            "bufferView" : 34,
            "componentType" : 5126,
            "count" : 368,
            "max" : [
                0.3271675705909729,
                1.018127679824829,
                1.1452045440673828
            ],
            "min" : [
                -0.32716765999794006,
                -1.780574194754081e-07,
                -1.145207166671753
            ],
            "type" : "VEC3"
        },
        {
            "bufferView" : 35,
            "componentType" : 5126,
            "count" : 368,
            "type" : "VEC3"
        },
        {
            "bufferView" : 36,
            "componentType" : 5126,
            "count" : 368,
            "type" : "VEC2"
        },
        {
            "bufferView" : 37,
            "componentType" : 5126,
            "count" : 368,
            "type" : "VEC2"
        },
        {
            "bufferView" : 38,
            "componentType" : 5123,
            "count" : 624,
            "type" : "SCALAR"
        },
        {
            "bufferView" : 39,
            "componentType" : 5126,
            "count" : 588,
            "max" : [
                0.3271675109863281,
                1.01812744140625,
                0.8984062075614929
            ],
            "min" : [
                -0.3271676003932953,
                -1.780574336862628e-07,
                -0.9019381999969482
            ],
            "type" : "VEC3"
        },
        {
            "bufferView" : 40,
            "componentType" : 5126,
            "count" : 588,
            "type" : "VEC3"
        },
        {
            "bufferView" : 41,
            "componentType" : 5126,
            "count" : 588,
            "type" : "VEC2"
        },
        {
            "bufferView" : 42,
            "componentType" : 5126,
            "count" : 588,
            "type" : "VEC2"
        },
        {
            "bufferView" : 43,
            "componentType" : 5123,
            "count" : 1092,
            "type" : "SCALAR"
        }
    ],
    "bufferViews" : [
        {
            "buffer" : 0,
            "byteLength" : 18648,
            "byteOffset" : 0
        },
        {
            "buffer" : 0,
            "byteLength" : 18648,
            "byteOffset" : 18648
        },
        {
            "buffer" : 0,
            "byteLength" : 12432,
            "byteOffset" : 37296
        },
        {
            "buffer" : 0,
            "byteLength" : 12432,
            "byteOffset" : 49728
        },
        {
            "buffer" : 0,
            "byteLength" : 3816,
            "byteOffset" : 62160
        },
        {
            "buffer" : 0,
            "byteLength" : 11232,
            "byteOffset" : 65976
        },
        {
            "buffer" : 0,
            "byteLength" : 11232,
            "byteOffset" : 77208
        },
        {
            "buffer" : 0,
            "byteLength" : 7488,
            "byteOffset" : 88440
        },
        {
            "buffer" : 0,
            "byteLength" : 7488,
            "byteOffset" : 95928
        },
        {
            "buffer" : 0,
            "byteLength" : 2256,
            "byteOffset" : 103416
        },
        {
            "buffer" : 0,
            "byteLength" : 7056,
            "byteOffset" : 105672
        },
        {
            "buffer" : 0,
            "byteLength" : 7056,
            "byteOffset" : 112728
        },
        {
            "buffer" : 0,
            "byteLength" : 4704,
            "byteOffset" : 119784
        },
        {
            "buffer" : 0,
            "byteLength" : 1764,
            "byteOffset" : 124488
        },
        {
            "buffer" : 0,
            "byteLength" : 24264,
            "byteOffset" : 126252
        },
        {
            "buffer" : 0,
            "byteLength" : 24264,
            "byteOffset" : 150516
        },
        {
            "buffer" : 0,
            "byteLength" : 16176,
            "byteOffset" : 174780
        },
        {
            "buffer" : 0,
            "byteLength" : 4848,
            "byteOffset" : 190956
        },
        {
            "buffer" : 0,
            "byteLength" : 4908,
            "byteOffset" : 195804
        },
        {
            "buffer" : 0,
            "byteLength" : 4908,
            "byteOffset" : 200712
        },
        {
            "buffer" : 0,
            "byteLength" : 3272,
            "byteOffset" : 205620
        },
        {
            "buffer" : 0,
            "byteLength" : 2166,
            "byteOffset" : 208892
        },
        {
            "buffer" : 0,
            "byteLength" : 3168,
            "byteOffset" : 211060
        },
        {
            "buffer" : 0,
            "byteLength" : 3168,
            "byteOffset" : 214228
        },
        {
            "buffer" : 0,
            "byteLength" : 2112,
            "byteOffset" : 217396
        },
        {
            "buffer" : 0,
            "byteLength" : 960,
            "byteOffset" : 219508
        },
        {
            "buffer" : 0,
            "byteLength" : 5160,
            "byteOffset" : 220468
        },
        {
            "buffer" : 0,
            "byteLength" : 5160,
            "byteOffset" : 225628
        },
        {
            "buffer" : 0,
            "byteLength" : 3440,
            "byteOffset" : 230788
        },
        {
            "buffer" : 0,
            "byteLength" : 1572,
            "byteOffset" : 234228
        },
        {
            "buffer" : 0,
            "byteLength" : 3864,
            "byteOffset" : 235800
        },
        {
            "buffer" : 0,
            "byteLength" : 3864,
            "byteOffset" : 239664
        },
        {
            "buffer" : 0,
            "byteLength" : 2576,
            "byteOffset" : 243528
        },
        {
            "buffer" : 0,
            "byteLength" : 1104,
            "byteOffset" : 246104
        },
        {
            "buffer" : 0,
            "byteLength" : 4416,
            "byteOffset" : 247208
        },
        {
            "buffer" : 0,
            "byteLength" : 4416,
            "byteOffset" : 251624
        },
        {
            "buffer" : 0,
            "byteLength" : 2944,
            "byteOffset" : 256040
        },
        {
            "buffer" : 0,
            "byteLength" : 2944,
            "byteOffset" : 258984
        },
        {
            "buffer" : 0,
            "byteLength" : 1248,
            "byteOffset" : 261928
        },
        {
            "buffer" : 0,
            "byteLength" : 7056,
            "byteOffset" : 263176
        },
        {
            "buffer" : 0,
            "byteLength" : 7056,
            "byteOffset" : 270232
        },
        {
            "buffer" : 0,
            "byteLength" : 4704,
            "byteOffset" : 277288
        },
        {
            "buffer" : 0,
            "byteLength" : 4704,
            "byteOffset" : 281992
        },
        {
            "buffer" : 0,
            "byteLength" : 2184,
            "byteOffset" : 286696
        }
    ],
    "samplers" : [
        {
            "magFilter" : 9729,
            "minFilter" : 9987
        }
    ],
    "buffers" : [
        {
            "byteLength" : 288880,
            "uri" : "dividers.bin"
        }
    ]
}
