{
    "asset" : {
        "generator" : "Khronos glTF Blender I/O v1.7.33",
        "version" : "2.0"
    },
    "scene" : 0,
    "scenes" : [
        {
            "name" : "Scene",
            "nodes" : [
                0
            ]
        }
    ],
    "nodes" : [
        {
            "mesh" : 0,
            "name" : "brt-station"
        }
    ],
    "materials" : [
        {
            "doubleSided" : true,
            "name" : "atlas_colors",
            "pbrMetallicRoughness" : {
                "baseColorTexture" : {
                    "index" : 0
                },
                "metallicFactor" : 0,
                "roughnessFactor" : 0.6499999761581421
            }
        },
        {
            "alphaMode" : "BLEND",
            "doubleSided" : true,
            "name" : "glass",
            "pbrMetallicRoughness" : {
                "baseColorFactor" : [
                    1,
                    1,
                    1,
                    0.30000001192092896
                ],
                "roughnessFactor" : 0
            }
        }
    ],
    "meshes" : [
        {
            "name" : "Plane.009",
            "primitives" : [
                {
                    "attributes" : {
                        "POSITION" : 0,
                        "NORMAL" : 1,
                        "TEXCOORD_0" : 2
                    },
                    "indices" : 3,
                    "material" : 0
                },
                {
                    "attributes" : {
                        "POSITION" : 4,
                        "NORMAL" : 5,
                        "TEXCOORD_0" : 6
                    },
                    "indices" : 7,
                    "material" : 1
                }
            ]
        }
    ],
    "textures" : [
        {
            "sampler" : 0,
            "source" : 0
        }
    ],
    "images" : [
        {
            "mimeType" : "image/jpeg",
            "name" : "atlas_colors_diffuse",
            "uri" : "atlas_colors_diffuse.jpg"
        }
    ],
    "accessors" : [
        {
            "bufferView" : 0,
            "componentType" : 5126,
            "count" : 8423,
            "max" : [
                2.98866605758667,
                4.445771217346191,
                7.999957084655762
            ],
            "min" : [
                -2.98866605758667,
                0.011770248413085938,
                -8.000042915344238
            ],
            "type" : "VEC3"
        },
        {
            "bufferView" : 1,
            "componentType" : 5126,
            "count" : 8423,
            "type" : "VEC3"
        },
        {
            "bufferView" : 2,
            "componentType" : 5126,
            "count" : 8423,
            "type" : "VEC2"
        },
        {
            "bufferView" : 3,
            "componentType" : 5123,
            "count" : 15132,
            "type" : "SCALAR"
        },
        {
            "bufferView" : 4,
            "componentType" : 5126,
            "count" : 32,
            "max" : [
                1.63079035282135,
                3.179621696472168,
                7.0609259605407715
            ],
            "min" : [
                -1.63079035282135,
                1.0432133674621582,
                -7.061011791229248
            ],
            "type" : "VEC3"
        },
        {
            "bufferView" : 5,
            "componentType" : 5126,
            "count" : 32,
            "type" : "VEC3"
        },
        {
            "bufferView" : 6,
            "componentType" : 5126,
            "count" : 32,
            "type" : "VEC2"
        },
        {
            "bufferView" : 7,
            "componentType" : 5123,
            "count" : 48,
            "type" : "SCALAR"
        }
    ],
    "bufferViews" : [
        {
            "buffer" : 0,
            "byteLength" : 101076,
            "byteOffset" : 0
        },
        {
            "buffer" : 0,
            "byteLength" : 101076,
            "byteOffset" : 101076
        },
        {
            "buffer" : 0,
            "byteLength" : 67384,
            "byteOffset" : 202152
        },
        {
            "buffer" : 0,
            "byteLength" : 30264,
            "byteOffset" : 269536
        },
        {
            "buffer" : 0,
            "byteLength" : 384,
            "byteOffset" : 299800
        },
        {
            "buffer" : 0,
            "byteLength" : 384,
            "byteOffset" : 300184
        },
        {
            "buffer" : 0,
            "byteLength" : 256,
            "byteOffset" : 300568
        },
        {
            "buffer" : 0,
            "byteLength" : 96,
            "byteOffset" : 300824
        }
    ],
    "samplers" : [
        {
            "magFilter" : 9729,
            "minFilter" : 9987
        }
    ],
    "buffers" : [
        {
            "byteLength" : 300920,
            "uri" : "brt-station.bin"
        }
    ]
}
