{
    "asset" : {
        "generator" : "Khronos glTF Blender I/O v1.7.33",
        "version" : "2.0"
    },
    "scene" : 0,
    "scenes" : [
        {
            "name" : "Scene",
            "nodes" : [
                0,
                1
            ]
        }
    ],
    "nodes" : [
        {
            "mesh" : 0,
            "name" : "Character_1_M",
            "rotation" : [
                0.7071068286895752,
                0,
                0,
                0.7071067094802856
            ],
            "translation" : [
                0,
                0.4040943384170532,
                1.22467839717865
            ]
        },
        {
            "mesh" : 1,
            "name" : "magic-carpet",
            "translation" : [
                0,
                1,
                0
            ]
        }
    ],
    "materials" : [
        {
            "doubleSided" : true,
            "name" : "atlas_colors",
            "pbrMetallicRoughness" : {
                "baseColorTexture" : {
                    "index" : 0
                },
                "metallicFactor" : 0,
                "roughnessFactor" : 0.6499999761581421
            }
        }
    ],
    "meshes" : [
        {
            "name" : "Character_1_M.001",
            "primitives" : [
                {
                    "attributes" : {
                        "POSITION" : 0,
                        "NORMAL" : 1,
                        "TEXCOORD_0" : 2
                    },
                    "indices" : 3,
                    "material" : 0
                }
            ]
        },
        {
            "name" : "Plane.001",
            "primitives" : [
                {
                    "attributes" : {
                        "POSITION" : 4,
                        "NORMAL" : 5,
                        "TEXCOORD_0" : 6
                    },
                    "indices" : 7,
                    "material" : 0
                }
            ]
        }
    ],
    "textures" : [
        {
            "sampler" : 0,
            "source" : 0
        }
    ],
    "images" : [
        {
            "mimeType" : "image/jpeg",
            "name" : "atlas_colors_diffuse",
            "uri" : "atlas_colors_diffuse.jpg"
        }
    ],
    "accessors" : [
        {
            "bufferView" : 0,
            "componentType" : 5126,
            "count" : 3975,
            "max" : [
                0.265516072511673,
                -0.7981594800949097,
                -0.5536723136901855
            ],
            "min" : [
                -0.33499032258987427,
                -1.3757439851760864,
                -1.8034359216690063
            ],
            "type" : "VEC3"
        },
        {
            "bufferView" : 1,
            "componentType" : 5126,
            "count" : 3975,
            "type" : "VEC3"
        },
        {
            "bufferView" : 2,
            "componentType" : 5126,
            "count" : 3975,
            "type" : "VEC2"
        },
        {
            "bufferView" : 3,
            "componentType" : 5123,
            "count" : 5517,
            "type" : "SCALAR"
        },
        {
            "bufferView" : 4,
            "componentType" : 5126,
            "count" : 3262,
            "max" : [
                1.1545510292053223,
                0.13184484839439392,
                1.6547389030456543
            ],
            "min" : [
                -1.1545510292053223,
                -0.07325110584497452,
                -1.6547389030456543
            ],
            "type" : "VEC3"
        },
        {
            "bufferView" : 5,
            "componentType" : 5126,
            "count" : 3262,
            "type" : "VEC3"
        },
        {
            "bufferView" : 6,
            "componentType" : 5126,
            "count" : 3262,
            "type" : "VEC2"
        },
        {
            "bufferView" : 7,
            "componentType" : 5123,
            "count" : 6696,
            "type" : "SCALAR"
        }
    ],
    "bufferViews" : [
        {
            "buffer" : 0,
            "byteLength" : 47700,
            "byteOffset" : 0
        },
        {
            "buffer" : 0,
            "byteLength" : 47700,
            "byteOffset" : 47700
        },
        {
            "buffer" : 0,
            "byteLength" : 31800,
            "byteOffset" : 95400
        },
        {
            "buffer" : 0,
            "byteLength" : 11034,
            "byteOffset" : 127200
        },
        {
            "buffer" : 0,
            "byteLength" : 39144,
            "byteOffset" : 138236
        },
        {
            "buffer" : 0,
            "byteLength" : 39144,
            "byteOffset" : 177380
        },
        {
            "buffer" : 0,
            "byteLength" : 26096,
            "byteOffset" : 216524
        },
        {
            "buffer" : 0,
            "byteLength" : 13392,
            "byteOffset" : 242620
        }
    ],
    "samplers" : [
        {
            "magFilter" : 9729,
            "minFilter" : 9987
        }
    ],
    "buffers" : [
        {
            "byteLength" : 256012,
            "uri" : "magic-carpet.bin"
        }
    ]
}
