{
    "asset" : {
        "generator" : "Khronos glTF Blender I/O v1.8.19",
        "version" : "2.0"
    },
    "scene" : 0,
    "scenes" : [
        {
            "name" : "Scene",
            "nodes" : [
                0,
                1,
                2,
                3,
                4
            ]
        }
    ],
    "nodes" : [
        {
            "mesh" : 0,
            "name" : "building_01"
        },
        {
            "mesh" : 1,
            "name" : "building_02"
        },
        {
            "mesh" : 2,
            "name" : "building_03"
        },
        {
            "mesh" : 3,
            "name" : "building_04"
        },
        {
            "mesh" : 4,
            "name" : "building_5"
        }
    ],
    "materials" : [
        {
            "doubleSided" : true,
            "name" : "atlas_colors",
            "pbrMetallicRoughness" : {
                "baseColorTexture" : {
                    "index" : 0
                },
                "metallicFactor" : 0,
                "roughnessFactor" : 0.6499999761581421
            }
        }
    ],
    "meshes" : [
        {
            "name" : "building_01",
            "primitives" : [
                {
                    "attributes" : {
                        "POSITION" : 0,
                        "NORMAL" : 1,
                        "TEXCOORD_0" : 2
                    },
                    "indices" : 3,
                    "material" : 0
                }
            ]
        },
        {
            "name" : "building_02",
            "primitives" : [
                {
                    "attributes" : {
                        "POSITION" : 4,
                        "NORMAL" : 5,
                        "TEXCOORD_0" : 6
                    },
                    "indices" : 7,
                    "material" : 0
                }
            ]
        },
        {
            "name" : "building_03",
            "primitives" : [
                {
                    "attributes" : {
                        "POSITION" : 8,
                        "NORMAL" : 9,
                        "TEXCOORD_0" : 10
                    },
                    "indices" : 11,
                    "material" : 0
                }
            ]
        },
        {
            "name" : "building_04",
            "primitives" : [
                {
                    "attributes" : {
                        "POSITION" : 12,
                        "NORMAL" : 13,
                        "TEXCOORD_0" : 14,
                        "TEXCOORD_1" : 15
                    },
                    "indices" : 16,
                    "material" : 0
                }
            ]
        },
        {
            "name" : "building_5",
            "primitives" : [
                {
                    "attributes" : {
                        "POSITION" : 17,
                        "NORMAL" : 18,
                        "TEXCOORD_0" : 19,
                        "TEXCOORD_1" : 20
                    },
                    "indices" : 21,
                    "material" : 0
                }
            ]
        }
    ],
    "textures" : [
        {
            "sampler" : 0,
            "source" : 0
        }
    ],
    "images" : [
        {
            "mimeType" : "image/jpeg",
            "name" : "atlas_colors_diffuse",
            "uri" : "atlas_colors_diffuse.jpg"
        }
    ],
    "accessors" : [
        {
            "bufferView" : 0,
            "componentType" : 5126,
            "count" : 3029,
            "max" : [
                2.6272189617156982,
                12.743271827697754,
                2.650784730911255
            ],
            "min" : [
                -2.6246883869171143,
                0,
                -3.2399022579193115
            ],
            "type" : "VEC3"
        },
        {
            "bufferView" : 1,
            "componentType" : 5126,
            "count" : 3029,
            "type" : "VEC3"
        },
        {
            "bufferView" : 2,
            "componentType" : 5126,
            "count" : 3029,
            "type" : "VEC2"
        },
        {
            "bufferView" : 3,
            "componentType" : 5123,
            "count" : 5124,
            "type" : "SCALAR"
        },
        {
            "bufferView" : 4,
            "componentType" : 5126,
            "count" : 3198,
            "max" : [
                3.2416436672210693,
                15.5001859664917,
                2.644397735595703
            ],
            "min" : [
                -2.6618921756744385,
                0,
                -3.3135125637054443
            ],
            "type" : "VEC3"
        },
        {
            "bufferView" : 5,
            "componentType" : 5126,
            "count" : 3198,
            "type" : "VEC3"
        },
        {
            "bufferView" : 6,
            "componentType" : 5126,
            "count" : 3198,
            "type" : "VEC2"
        },
        {
            "bufferView" : 7,
            "componentType" : 5123,
            "count" : 5976,
            "type" : "SCALAR"
        },
        {
            "bufferView" : 8,
            "componentType" : 5126,
            "count" : 10842,
            "max" : [
                5.217921257019043,
                15.49996280670166,
                2.516608238220215
            ],
            "min" : [
                -5.686440467834473,
                0,
                -3.4001169204711914
            ],
            "type" : "VEC3"
        },
        {
            "bufferView" : 9,
            "componentType" : 5126,
            "count" : 10842,
            "type" : "VEC3"
        },
        {
            "bufferView" : 10,
            "componentType" : 5126,
            "count" : 10842,
            "type" : "VEC2"
        },
        {
            "bufferView" : 11,
            "componentType" : 5123,
            "count" : 18648,
            "type" : "SCALAR"
        },
        {
            "bufferView" : 12,
            "componentType" : 5126,
            "count" : 2994,
            "max" : [
                2.6572036743164062,
                12.743376731872559,
                2.6547775268554688
            ],
            "min" : [
                -2.6520233154296875,
                0,
                -3.34019136428833
            ],
            "type" : "VEC3"
        },
        {
            "bufferView" : 13,
            "componentType" : 5126,
            "count" : 2994,
            "type" : "VEC3"
        },
        {
            "bufferView" : 14,
            "componentType" : 5126,
            "count" : 2994,
            "type" : "VEC2"
        },
        {
            "bufferView" : 15,
            "componentType" : 5126,
            "count" : 2994,
            "type" : "VEC2"
        },
        {
            "bufferView" : 16,
            "componentType" : 5123,
            "count" : 5214,
            "type" : "SCALAR"
        },
        {
            "bufferView" : 17,
            "componentType" : 5126,
            "count" : 8489,
            "max" : [
                2.6402969360351562,
                13.560174942016602,
                2.641875743865967
            ],
            "min" : [
                -3.0037765502929688,
                0,
                -3.0021958351135254
            ],
            "type" : "VEC3"
        },
        {
            "bufferView" : 18,
            "componentType" : 5126,
            "count" : 8489,
            "type" : "VEC3"
        },
        {
            "bufferView" : 19,
            "componentType" : 5126,
            "count" : 8489,
            "type" : "VEC2"
        },
        {
            "bufferView" : 20,
            "componentType" : 5126,
            "count" : 8489,
            "type" : "VEC2"
        },
        {
            "bufferView" : 21,
            "componentType" : 5123,
            "count" : 14361,
            "type" : "SCALAR"
        }
    ],
    "bufferViews" : [
        {
            "buffer" : 0,
            "byteLength" : 36348,
            "byteOffset" : 0
        },
        {
            "buffer" : 0,
            "byteLength" : 36348,
            "byteOffset" : 36348
        },
        {
            "buffer" : 0,
            "byteLength" : 24232,
            "byteOffset" : 72696
        },
        {
            "buffer" : 0,
            "byteLength" : 10248,
            "byteOffset" : 96928
        },
        {
            "buffer" : 0,
            "byteLength" : 38376,
            "byteOffset" : 107176
        },
        {
            "buffer" : 0,
            "byteLength" : 38376,
            "byteOffset" : 145552
        },
        {
            "buffer" : 0,
            "byteLength" : 25584,
            "byteOffset" : 183928
        },
        {
            "buffer" : 0,
            "byteLength" : 11952,
            "byteOffset" : 209512
        },
        {
            "buffer" : 0,
            "byteLength" : 130104,
            "byteOffset" : 221464
        },
        {
            "buffer" : 0,
            "byteLength" : 130104,
            "byteOffset" : 351568
        },
        {
            "buffer" : 0,
            "byteLength" : 86736,
            "byteOffset" : 481672
        },
        {
            "buffer" : 0,
            "byteLength" : 37296,
            "byteOffset" : 568408
        },
        {
            "buffer" : 0,
            "byteLength" : 35928,
            "byteOffset" : 605704
        },
        {
            "buffer" : 0,
            "byteLength" : 35928,
            "byteOffset" : 641632
        },
        {
            "buffer" : 0,
            "byteLength" : 23952,
            "byteOffset" : 677560
        },
        {
            "buffer" : 0,
            "byteLength" : 23952,
            "byteOffset" : 701512
        },
        {
            "buffer" : 0,
            "byteLength" : 10428,
            "byteOffset" : 725464
        },
        {
            "buffer" : 0,
            "byteLength" : 101868,
            "byteOffset" : 735892
        },
        {
            "buffer" : 0,
            "byteLength" : 101868,
            "byteOffset" : 837760
        },
        {
            "buffer" : 0,
            "byteLength" : 67912,
            "byteOffset" : 939628
        },
        {
            "buffer" : 0,
            "byteLength" : 67912,
            "byteOffset" : 1007540
        },
        {
            "buffer" : 0,
            "byteLength" : 28722,
            "byteOffset" : 1075452
        }
    ],
    "samplers" : [
        {
            "magFilter" : 9729,
            "minFilter" : 9987
        }
    ],
    "buffers" : [
        {
            "byteLength" : 1104176,
            "uri" : "buildings.bin"
        }
    ]
}
