{
    "asset" : {
        "generator" : "Khronos glTF Blender I/O v1.5.17",
        "version" : "2.0"
    },
    "scene" : 0,
    "scenes" : [
        {
            "name" : "Scene",
            "nodes" : [
                0,
                1,
                2,
                3,
                4
            ]
        }
    ],
    "nodes" : [
        {
            "mesh" : 0,
            "name" : "SM3D_Bld_Mixed_4fl"
        },
        {
            "mesh" : 1,
            "name" : "SM3D_Bld_Mixed_5fl"
        },
        {
            "mesh" : 2,
            "name" : "SM3D_Bld_Mixed_Double_5fl"
        },
        {
            "mesh" : 3,
            "name" : "SM3D_Bld_Mixed_4fl_2"
        },
        {
            "mesh" : 4,
            "name" : "SM3D_Bld_Mixed_Corner_4fl"
        }
    ],
    "materials" : [
        {
            "doubleSided" : true,
            "name" : "atlas_colors",
            "pbrMetallicRoughness" : {
                "baseColorTexture" : {
                    "index" : 0
                },
                "metallicFactor" : 0,
                "roughnessFactor" : 0.6499999761581421
            }
        }
    ],
    "meshes" : [
        {
            "name" : "SM3D_Bld_Mixed_4fl",
            "primitives" : [
                {
                    "attributes" : {
                        "POSITION" : 0,
                        "TEXCOORD_0" : 1
                    },
                    "indices" : 2,
                    "material" : 0
                }
            ]
        },
        {
            "name" : "SM3D_Bld_Mixed_5fl",
            "primitives" : [
                {
                    "attributes" : {
                        "POSITION" : 3,
                        "TEXCOORD_0" : 4
                    },
                    "indices" : 5,
                    "material" : 0
                }
            ]
        },
        {
            "name" : "SM3D_Bld_Mixed_Double_5fl",
            "primitives" : [
                {
                    "attributes" : {
                        "POSITION" : 6,
                        "TEXCOORD_0" : 7
                    },
                    "indices" : 8,
                    "material" : 0
                }
            ]
        },
        {
            "name" : "SM3D_Bld_Mixed_4fl_2",
            "primitives" : [
                {
                    "attributes" : {
                        "POSITION" : 9,
                        "TEXCOORD_0" : 10,
                        "TEXCOORD_1" : 11
                    },
                    "indices" : 12,
                    "material" : 0
                }
            ]
        },
        {
            "name" : "SM3D_Bld_Mixed_Corner_4fl",
            "primitives" : [
                {
                    "attributes" : {
                        "POSITION" : 13,
                        "TEXCOORD_0" : 14,
                        "TEXCOORD_1" : 15
                    },
                    "indices" : 16,
                    "material" : 0
                }
            ]
        }
    ],
    "textures" : [
        {
            "sampler" : 0,
            "source" : 0
        }
    ],
    "images" : [
        {
            "mimeType" : "image/jpeg",
            "name" : "atlas_colors_diffuse",
            "uri" : "atlas_colors_diffuse.jpg"
        }
    ],
    "accessors" : [
        {
            "bufferView" : 0,
            "componentType" : 5126,
            "count" : 1359,
            "max" : [
                2.6272189617156982,
                12.743271827697754,
                2.650784730911255
            ],
            "min" : [
                -2.6246883869171143,
                0,
                -3.2399022579193115
            ],
            "type" : "VEC3"
        },
        {
            "bufferView" : 1,
            "componentType" : 5126,
            "count" : 1359,
            "type" : "VEC2"
        },
        {
            "bufferView" : 2,
            "componentType" : 5123,
            "count" : 5124,
            "type" : "SCALAR"
        },
        {
            "bufferView" : 3,
            "componentType" : 5126,
            "count" : 1455,
            "max" : [
                3.2416436672210693,
                15.5001859664917,
                2.644397735595703
            ],
            "min" : [
                -2.6618921756744385,
                0,
                -3.3135125637054443
            ],
            "type" : "VEC3"
        },
        {
            "bufferView" : 4,
            "componentType" : 5126,
            "count" : 1455,
            "type" : "VEC2"
        },
        {
            "bufferView" : 5,
            "componentType" : 5123,
            "count" : 5976,
            "type" : "SCALAR"
        },
        {
            "bufferView" : 6,
            "componentType" : 5126,
            "count" : 5333,
            "max" : [
                5.217921257019043,
                15.49996280670166,
                2.516608238220215
            ],
            "min" : [
                -5.686440467834473,
                0,
                -3.4001169204711914
            ],
            "type" : "VEC3"
        },
        {
            "bufferView" : 7,
            "componentType" : 5126,
            "count" : 5333,
            "type" : "VEC2"
        },
        {
            "bufferView" : 8,
            "componentType" : 5123,
            "count" : 18648,
            "type" : "SCALAR"
        },
        {
            "bufferView" : 9,
            "componentType" : 5126,
            "count" : 2668,
            "max" : [
                2.6572036743164062,
                12.743376731872559,
                2.6547775268554688
            ],
            "min" : [
                -2.6520233154296875,
                0,
                -3.34019136428833
            ],
            "type" : "VEC3"
        },
        {
            "bufferView" : 10,
            "componentType" : 5126,
            "count" : 2668,
            "type" : "VEC2"
        },
        {
            "bufferView" : 11,
            "componentType" : 5126,
            "count" : 2668,
            "type" : "VEC2"
        },
        {
            "bufferView" : 12,
            "componentType" : 5123,
            "count" : 5214,
            "type" : "SCALAR"
        },
        {
            "bufferView" : 13,
            "componentType" : 5126,
            "count" : 7209,
            "max" : [
                2.6402969360351562,
                13.560174942016602,
                2.641875743865967
            ],
            "min" : [
                -3.0037765502929688,
                0,
                -3.0021958351135254
            ],
            "type" : "VEC3"
        },
        {
            "bufferView" : 14,
            "componentType" : 5126,
            "count" : 7209,
            "type" : "VEC2"
        },
        {
            "bufferView" : 15,
            "componentType" : 5126,
            "count" : 7209,
            "type" : "VEC2"
        },
        {
            "bufferView" : 16,
            "componentType" : 5123,
            "count" : 14361,
            "type" : "SCALAR"
        }
    ],
    "bufferViews" : [
        {
            "buffer" : 0,
            "byteLength" : 16308,
            "byteOffset" : 0
        },
        {
            "buffer" : 0,
            "byteLength" : 10872,
            "byteOffset" : 16308
        },
        {
            "buffer" : 0,
            "byteLength" : 10248,
            "byteOffset" : 27180
        },
        {
            "buffer" : 0,
            "byteLength" : 17460,
            "byteOffset" : 37428
        },
        {
            "buffer" : 0,
            "byteLength" : 11640,
            "byteOffset" : 54888
        },
        {
            "buffer" : 0,
            "byteLength" : 11952,
            "byteOffset" : 66528
        },
        {
            "buffer" : 0,
            "byteLength" : 63996,
            "byteOffset" : 78480
        },
        {
            "buffer" : 0,
            "byteLength" : 42664,
            "byteOffset" : 142476
        },
        {
            "buffer" : 0,
            "byteLength" : 37296,
            "byteOffset" : 185140
        },
        {
            "buffer" : 0,
            "byteLength" : 32016,
            "byteOffset" : 222436
        },
        {
            "buffer" : 0,
            "byteLength" : 21344,
            "byteOffset" : 254452
        },
        {
            "buffer" : 0,
            "byteLength" : 21344,
            "byteOffset" : 275796
        },
        {
            "buffer" : 0,
            "byteLength" : 10428,
            "byteOffset" : 297140
        },
        {
            "buffer" : 0,
            "byteLength" : 86508,
            "byteOffset" : 307568
        },
        {
            "buffer" : 0,
            "byteLength" : 57672,
            "byteOffset" : 394076
        },
        {
            "buffer" : 0,
            "byteLength" : 57672,
            "byteOffset" : 451748
        },
        {
            "buffer" : 0,
            "byteLength" : 28722,
            "byteOffset" : 509420
        }
    ],
    "samplers" : [
        {
            "magFilter" : 9729,
            "minFilter" : 9987
        }
    ],
    "buffers" : [
        {
            "byteLength" : 538144,
            "uri" : "buildings_v2.bin"
        }
    ]
}
