{
    "asset" : {
        "generator" : "Khronos glTF Blender I/O v1.7.33",
        "version" : "2.0"
    },
    "scene" : 0,
    "scenes" : [
        {
            "name" : "Scene",
            "nodes" : [
                0,
                1
            ]
        }
    ],
    "nodes" : [
        {
            "mesh" : 0,
            "name" : "bench_orientation_center"
        },
        {
            "mesh" : 1,
            "name" : "outdoor_dining"
        }
    ],
    "materials" : [
        {
            "doubleSided" : true,
            "name" : "atlas_colors",
            "pbrMetallicRoughness" : {
                "baseColorTexture" : {
                    "index" : 0
                },
                "metallicFactor" : 0,
                "roughnessFactor" : 0.6499999761581421
            }
        }
    ],
    "meshes" : [
        {
            "name" : "bench_orientation_center",
            "primitives" : [
                {
                    "attributes" : {
                        "POSITION" : 0,
                        "NORMAL" : 1,
                        "TEXCOORD_0" : 2,
                        "TEXCOORD_1" : 3
                    },
                    "indices" : 4,
                    "material" : 0
                }
            ]
        },
        {
            "name" : "outdoor_dining",
            "primitives" : [
                {
                    "attributes" : {
                        "POSITION" : 5,
                        "NORMAL" : 6,
                        "TEXCOORD_0" : 7
                    },
                    "indices" : 8,
                    "material" : 0
                }
            ]
        }
    ],
    "textures" : [
        {
            "sampler" : 0,
            "source" : 0
        }
    ],
    "images" : [
        {
            "mimeType" : "image/jpeg",
            "name" : "atlas_colors_diffuse",
            "uri" : "atlas_colors_diffuse.jpg"
        }
    ],
    "accessors" : [
        {
            "bufferView" : 0,
            "componentType" : 5126,
            "count" : 1273,
            "max" : [
                1.090448021888733,
                0.7411021590232849,
                0.3231596350669861
            ],
            "min" : [
                -0.9890167713165283,
                -3.500816347923319e-08,
                -0.3231596350669861
            ],
            "type" : "VEC3"
        },
        {
            "bufferView" : 1,
            "componentType" : 5126,
            "count" : 1273,
            "type" : "VEC3"
        },
        {
            "bufferView" : 2,
            "componentType" : 5126,
            "count" : 1273,
            "type" : "VEC2"
        },
        {
            "bufferView" : 3,
            "componentType" : 5126,
            "count" : 1273,
            "type" : "VEC2"
        },
        {
            "bufferView" : 4,
            "componentType" : 5123,
            "count" : 1800,
            "type" : "SCALAR"
        },
        {
            "bufferView" : 5,
            "componentType" : 5126,
            "count" : 1691,
            "max" : [
                1.2841919660568237,
                2.6466264724731445,
                1.1342309713363647
            ],
            "min" : [
                -1.2841918468475342,
                -3.297888895303913e-08,
                -1.1342313289642334
            ],
            "type" : "VEC3"
        },
        {
            "bufferView" : 6,
            "componentType" : 5126,
            "count" : 1691,
            "type" : "VEC3"
        },
        {
            "bufferView" : 7,
            "componentType" : 5126,
            "count" : 1691,
            "type" : "VEC2"
        },
        {
            "bufferView" : 8,
            "componentType" : 5123,
            "count" : 2880,
            "type" : "SCALAR"
        }
    ],
    "bufferViews" : [
        {
            "buffer" : 0,
            "byteLength" : 15276,
            "byteOffset" : 0
        },
        {
            "buffer" : 0,
            "byteLength" : 15276,
            "byteOffset" : 15276
        },
        {
            "buffer" : 0,
            "byteLength" : 10184,
            "byteOffset" : 30552
        },
        {
            "buffer" : 0,
            "byteLength" : 10184,
            "byteOffset" : 40736
        },
        {
            "buffer" : 0,
            "byteLength" : 3600,
            "byteOffset" : 50920
        },
        {
            "buffer" : 0,
            "byteLength" : 20292,
            "byteOffset" : 54520
        },
        {
            "buffer" : 0,
            "byteLength" : 20292,
            "byteOffset" : 74812
        },
        {
            "buffer" : 0,
            "byteLength" : 13528,
            "byteOffset" : 95104
        },
        {
            "buffer" : 0,
            "byteLength" : 5760,
            "byteOffset" : 108632
        }
    ],
    "samplers" : [
        {
            "magFilter" : 9729,
            "minFilter" : 9987
        }
    ],
    "buffers" : [
        {
            "byteLength" : 114392,
            "uri" : "street-props.bin"
        }
    ]
}
