{
    "asset" : {
        "generator" : "Khronos glTF Blender I/O v1.7.33",
        "version" : "2.0"
    },
    "scene" : 0,
    "scenes" : [
        {
            "name" : "Scene",
            "nodes" : [
                0,
                1,
                2,
                3
            ]
        }
    ],
    "nodes" : [
        {
            "mesh" : 0,
            "name" : "bench_orientation_center"
        },
        {
            "mesh" : 1,
            "name" : "outdoor_dining"
        },
        {
            "mesh" : 2,
            "name" : "utility_pole"
        },
        {
            "mesh" : 3,
            "name" : "parklet",
            "scale" : [
                0.009999999776482582,
                0.009999999776482582,
                0.009999999776482582
            ],
            "translation" : [
                2.349254608154297,
                0.4037470519542694,
                0.5262335538864136
            ]
        }
    ],
    "materials" : [
        {
            "doubleSided" : true,
            "name" : "atlas_colors",
            "pbrMetallicRoughness" : {
                "baseColorTexture" : {
                    "index" : 0
                },
                "metallicFactor" : 0,
                "roughnessFactor" : 0.6499999761581421
            }
        }
    ],
    "meshes" : [
        {
            "name" : "bench_orientation_center",
            "primitives" : [
                {
                    "attributes" : {
                        "POSITION" : 0,
                        "NORMAL" : 1,
                        "TEXCOORD_0" : 2
                    },
                    "indices" : 3,
                    "material" : 0
                }
            ]
        },
        {
            "name" : "outdoor_dining",
            "primitives" : [
                {
                    "attributes" : {
                        "POSITION" : 4,
                        "NORMAL" : 5,
                        "TEXCOORD_0" : 6
                    },
                    "indices" : 7,
                    "material" : 0
                }
            ]
        },
        {
            "name" : "utility_pole",
            "primitives" : [
                {
                    "attributes" : {
                        "POSITION" : 8,
                        "NORMAL" : 9,
                        "TEXCOORD_0" : 10
                    },
                    "indices" : 11,
                    "material" : 0
                }
            ]
        },
        {
            "name" : "parklet",
            "primitives" : [
                {
                    "attributes" : {
                        "POSITION" : 12,
                        "NORMAL" : 13,
                        "TEXCOORD_0" : 14
                    },
                    "indices" : 15,
                    "material" : 0
                }
            ]
        }
    ],
    "textures" : [
        {
            "sampler" : 0,
            "source" : 0
        }
    ],
    "images" : [
        {
            "mimeType" : "image/jpeg",
            "name" : "atlas_colors_diffuse",
            "uri" : "atlas_colors_diffuse.jpg"
        }
    ],
    "accessors" : [
        {
            "bufferView" : 0,
            "componentType" : 5126,
            "count" : 1273,
            "max" : [
                1.090448021888733,
                0.7411021590232849,
                0.3231596350669861
            ],
            "min" : [
                -0.9890167713165283,
                -3.500816347923319e-08,
                -0.3231596350669861
            ],
            "type" : "VEC3"
        },
        {
            "bufferView" : 1,
            "componentType" : 5126,
            "count" : 1273,
            "type" : "VEC3"
        },
        {
            "bufferView" : 2,
            "componentType" : 5126,
            "count" : 1273,
            "type" : "VEC2"
        },
        {
            "bufferView" : 3,
            "componentType" : 5123,
            "count" : 1800,
            "type" : "SCALAR"
        },
        {
            "bufferView" : 4,
            "componentType" : 5126,
            "count" : 1691,
            "max" : [
                1.2841919660568237,
                2.6466264724731445,
                1.1342309713363647
            ],
            "min" : [
                -1.2841918468475342,
                -3.297888895303913e-08,
                -1.1342313289642334
            ],
            "type" : "VEC3"
        },
        {
            "bufferView" : 5,
            "componentType" : 5126,
            "count" : 1691,
            "type" : "VEC3"
        },
        {
            "bufferView" : 6,
            "componentType" : 5126,
            "count" : 1691,
            "type" : "VEC2"
        },
        {
            "bufferView" : 7,
            "componentType" : 5123,
            "count" : 2880,
            "type" : "SCALAR"
        },
        {
            "bufferView" : 8,
            "componentType" : 5126,
            "count" : 1613,
            "max" : [
                0.5071192979812622,
                4.297267436981201,
                0.16397903859615326
            ],
            "min" : [
                -0.5071192979812622,
                0.003673762083053589,
                -0.16397900879383087
            ],
            "type" : "VEC3"
        },
        {
            "bufferView" : 9,
            "componentType" : 5126,
            "count" : 1613,
            "type" : "VEC3"
        },
        {
            "bufferView" : 10,
            "componentType" : 5126,
            "count" : 1613,
            "type" : "VEC2"
        },
        {
            "bufferView" : 11,
            "componentType" : 5123,
            "count" : 2388,
            "type" : "SCALAR"
        },
        {
            "bufferView" : 12,
            "componentType" : 5126,
            "count" : 11522,
            "max" : [
                43.77049255371094,
                67.77507019042969,
                72.37664794921875
            ],
            "min" : [
                -473.5081787109375,
                -40.66358947753906,
                -177.62335205078125
            ],
            "type" : "VEC3"
        },
        {
            "bufferView" : 13,
            "componentType" : 5126,
            "count" : 11522,
            "type" : "VEC3"
        },
        {
            "bufferView" : 14,
            "componentType" : 5126,
            "count" : 11522,
            "type" : "VEC2"
        },
        {
            "bufferView" : 15,
            "componentType" : 5123,
            "count" : 18060,
            "type" : "SCALAR"
        }
    ],
    "bufferViews" : [
        {
            "buffer" : 0,
            "byteLength" : 15276,
            "byteOffset" : 0
        },
        {
            "buffer" : 0,
            "byteLength" : 15276,
            "byteOffset" : 15276
        },
        {
            "buffer" : 0,
            "byteLength" : 10184,
            "byteOffset" : 30552
        },
        {
            "buffer" : 0,
            "byteLength" : 3600,
            "byteOffset" : 40736
        },
        {
            "buffer" : 0,
            "byteLength" : 20292,
            "byteOffset" : 44336
        },
        {
            "buffer" : 0,
            "byteLength" : 20292,
            "byteOffset" : 64628
        },
        {
            "buffer" : 0,
            "byteLength" : 13528,
            "byteOffset" : 84920
        },
        {
            "buffer" : 0,
            "byteLength" : 5760,
            "byteOffset" : 98448
        },
        {
            "buffer" : 0,
            "byteLength" : 19356,
            "byteOffset" : 104208
        },
        {
            "buffer" : 0,
            "byteLength" : 19356,
            "byteOffset" : 123564
        },
        {
            "buffer" : 0,
            "byteLength" : 12904,
            "byteOffset" : 142920
        },
        {
            "buffer" : 0,
            "byteLength" : 4776,
            "byteOffset" : 155824
        },
        {
            "buffer" : 0,
            "byteLength" : 138264,
            "byteOffset" : 160600
        },
        {
            "buffer" : 0,
            "byteLength" : 138264,
            "byteOffset" : 298864
        },
        {
            "buffer" : 0,
            "byteLength" : 92176,
            "byteOffset" : 437128
        },
        {
            "buffer" : 0,
            "byteLength" : 36120,
            "byteOffset" : 529304
        }
    ],
    "samplers" : [
        {
            "magFilter" : 9729,
            "minFilter" : 9987
        }
    ],
    "buffers" : [
        {
            "byteLength" : 565424,
            "uri" : "street-props.bin"
        }
    ]
}
