{
    "asset" : {
        "generator" : "Khronos glTF Blender I/O v1.6.16",
        "version" : "2.0"
    },
    "scene" : 0,
    "scenes" : [
        {
            "name" : "Scene",
            "nodes" : [
                0,
                1,
                2,
                3,
                4,
                5
            ]
        }
    ],
    "nodes" : [
        {
            "mesh" : 0,
            "name" : "sedan"
        },
        {
            "mesh" : 1,
            "name" : "sedan-taxi"
        },
        {
            "mesh" : 2,
            "name" : "city-bus"
        },
        {
            "mesh" : 3,
            "name" : "box-truck"
        },
        {
            "mesh" : 4,
            "name" : "suv"
        },
        {
            "mesh" : 5,
            "name" : "food-trailer"
        }
    ],
    "materials" : [
        {
            "doubleSided" : true,
            "name" : "atlas_colors",
            "pbrMetallicRoughness" : {
                "baseColorTexture" : {
                    "index" : 0
                },
                "metallicFactor" : 0,
                "roughnessFactor" : 0.6499999761581421
            }
        },
        {
            "alphaMode" : "BLEND",
            "doubleSided" : true,
            "name" : "glass",
            "pbrMetallicRoughness" : {
                "baseColorFactor" : [
                    1,
                    1,
                    1,
                    0.10000000149011612
                ],
                "roughnessFactor" : 0
            }
        }
    ],
    "meshes" : [
        {
            "name" : "sedan",
            "primitives" : [
                {
                    "attributes" : {
                        "POSITION" : 0,
                        "NORMAL" : 1,
                        "TEXCOORD_0" : 2
                    },
                    "indices" : 3,
                    "material" : 0
                },
                {
                    "attributes" : {
                        "POSITION" : 4,
                        "NORMAL" : 5,
                        "TEXCOORD_0" : 6
                    },
                    "indices" : 7,
                    "material" : 1
                }
            ]
        },
        {
            "name" : "sedan-taxi",
            "primitives" : [
                {
                    "attributes" : {
                        "POSITION" : 8,
                        "NORMAL" : 9,
                        "TEXCOORD_0" : 10
                    },
                    "indices" : 11,
                    "material" : 0
                },
                {
                    "attributes" : {
                        "POSITION" : 12,
                        "NORMAL" : 13,
                        "TEXCOORD_0" : 14
                    },
                    "indices" : 15,
                    "material" : 1
                }
            ]
        },
        {
            "name" : "city-bus",
            "primitives" : [
                {
                    "attributes" : {
                        "POSITION" : 16,
                        "NORMAL" : 17,
                        "TEXCOORD_0" : 18
                    },
                    "indices" : 19,
                    "material" : 0
                },
                {
                    "attributes" : {
                        "POSITION" : 20,
                        "NORMAL" : 21,
                        "TEXCOORD_0" : 22
                    },
                    "indices" : 23,
                    "material" : 1
                }
            ]
        },
        {
            "name" : "box-truck",
            "primitives" : [
                {
                    "attributes" : {
                        "POSITION" : 24,
                        "NORMAL" : 25,
                        "TEXCOORD_0" : 26
                    },
                    "indices" : 27,
                    "material" : 0
                },
                {
                    "attributes" : {
                        "POSITION" : 28,
                        "NORMAL" : 29,
                        "TEXCOORD_0" : 30
                    },
                    "indices" : 31,
                    "material" : 1
                }
            ]
        },
        {
            "name" : "suv",
            "primitives" : [
                {
                    "attributes" : {
                        "POSITION" : 32,
                        "NORMAL" : 33,
                        "TEXCOORD_0" : 34
                    },
                    "indices" : 35,
                    "material" : 0
                },
                {
                    "attributes" : {
                        "POSITION" : 36,
                        "NORMAL" : 37,
                        "TEXCOORD_0" : 38
                    },
                    "indices" : 39,
                    "material" : 1
                }
            ]
        },
        {
            "name" : "food-trailer",
            "primitives" : [
                {
                    "attributes" : {
                        "POSITION" : 40,
                        "NORMAL" : 41,
                        "TEXCOORD_0" : 42
                    },
                    "indices" : 43,
                    "material" : 0
                },
                {
                    "attributes" : {
                        "POSITION" : 44,
                        "NORMAL" : 45,
                        "TEXCOORD_0" : 46
                    },
                    "indices" : 47,
                    "material" : 1
                }
            ]
        }
    ],
    "textures" : [
        {
            "sampler" : 0,
            "source" : 0
        }
    ],
    "images" : [
        {
            "mimeType" : "image/jpeg",
            "name" : "atlas_colors_diffuse",
            "uri" : "atlas_colors_diffuse.jpg"
        }
    ],
    "accessors" : [
        {
            "bufferView" : 0,
            "componentType" : 5126,
            "count" : 10148,
            "max" : [
                1.086065649986267,
                1.5350958108901978,
                2.706883192062378
            ],
            "min" : [
                -1.0860625505447388,
                -2.6592991275720124e-07,
                -2.4681410789489746
            ],
            "type" : "VEC3"
        },
        {
            "bufferView" : 1,
            "componentType" : 5126,
            "count" : 10148,
            "type" : "VEC3"
        },
        {
            "bufferView" : 2,
            "componentType" : 5126,
            "count" : 10148,
            "type" : "VEC2"
        },
        {
            "bufferView" : 3,
            "componentType" : 5123,
            "count" : 16386,
            "type" : "SCALAR"
        },
        {
            "bufferView" : 4,
            "componentType" : 5126,
            "count" : 66,
            "max" : [
                0.8581023812294006,
                1.442517638206482,
                1.109281301498413
            ],
            "min" : [
                -0.8581015467643738,
                1.012095332145691,
                -1.5564740896224976
            ],
            "type" : "VEC3"
        },
        {
            "bufferView" : 5,
            "componentType" : 5126,
            "count" : 66,
            "type" : "VEC3"
        },
        {
            "bufferView" : 6,
            "componentType" : 5126,
            "count" : 66,
            "type" : "VEC2"
        },
        {
            "bufferView" : 7,
            "componentType" : 5123,
            "count" : 174,
            "type" : "SCALAR"
        },
        {
            "bufferView" : 8,
            "componentType" : 5126,
            "count" : 11313,
            "max" : [
                1.086064100265503,
                1.7224284410476685,
                2.7077813148498535
            ],
            "min" : [
                -1.086064100265503,
                -2.659298843354918e-07,
                -2.4681410789489746
            ],
            "type" : "VEC3"
        },
        {
            "bufferView" : 9,
            "componentType" : 5126,
            "count" : 11313,
            "type" : "VEC3"
        },
        {
            "bufferView" : 10,
            "componentType" : 5126,
            "count" : 11313,
            "type" : "VEC2"
        },
        {
            "bufferView" : 11,
            "componentType" : 5123,
            "count" : 19392,
            "type" : "SCALAR"
        },
        {
            "bufferView" : 12,
            "componentType" : 5126,
            "count" : 66,
            "max" : [
                0.8581008911132812,
                1.442517638206482,
                1.109281301498413
            ],
            "min" : [
                -0.8581008911132812,
                1.012095332145691,
                -1.5564740896224976
            ],
            "type" : "VEC3"
        },
        {
            "bufferView" : 13,
            "componentType" : 5126,
            "count" : 66,
            "type" : "VEC3"
        },
        {
            "bufferView" : 14,
            "componentType" : 5126,
            "count" : 66,
            "type" : "VEC2"
        },
        {
            "bufferView" : 15,
            "componentType" : 5123,
            "count" : 174,
            "type" : "SCALAR"
        },
        {
            "bufferView" : 16,
            "componentType" : 5126,
            "count" : 15413,
            "max" : [
                1.6186444759368896,
                3.347443103790283,
                6.400580883026123
            ],
            "min" : [
                -1.6186444759368896,
                -5.627169912258978e-07,
                -5.025569915771484
            ],
            "type" : "VEC3"
        },
        {
            "bufferView" : 17,
            "componentType" : 5126,
            "count" : 15413,
            "type" : "VEC3"
        },
        {
            "bufferView" : 18,
            "componentType" : 5126,
            "count" : 15413,
            "type" : "VEC2"
        },
        {
            "bufferView" : 19,
            "componentType" : 5123,
            "count" : 26829,
            "type" : "SCALAR"
        },
        {
            "bufferView" : 20,
            "componentType" : 5126,
            "count" : 110,
            "max" : [
                1.3681811094284058,
                3.1971707344055176,
                6.265720844268799
            ],
            "min" : [
                -1.3335676193237305,
                0.777705192565918,
                -4.936404228210449
            ],
            "type" : "VEC3"
        },
        {
            "bufferView" : 21,
            "componentType" : 5126,
            "count" : 110,
            "type" : "VEC3"
        },
        {
            "bufferView" : 22,
            "componentType" : 5126,
            "count" : 110,
            "type" : "VEC2"
        },
        {
            "bufferView" : 23,
            "componentType" : 5123,
            "count" : 354,
            "type" : "SCALAR"
        },
        {
            "bufferView" : 24,
            "componentType" : 5126,
            "count" : 18379,
            "max" : [
                1.3741778135299683,
                3.7230019569396973,
                3.815704584121704
            ],
            "min" : [
                -1.3741778135299683,
                -0.03471749648451805,
                -3.133903980255127
            ],
            "type" : "VEC3"
        },
        {
            "bufferView" : 25,
            "componentType" : 5126,
            "count" : 18379,
            "type" : "VEC3"
        },
        {
            "bufferView" : 26,
            "componentType" : 5126,
            "count" : 18379,
            "type" : "VEC2"
        },
        {
            "bufferView" : 27,
            "componentType" : 5123,
            "count" : 31518,
            "type" : "SCALAR"
        },
        {
            "bufferView" : 28,
            "componentType" : 5126,
            "count" : 33,
            "max" : [
                1.013129711151123,
                2.5232481956481934,
                3.6841259002685547
            ],
            "min" : [
                -1.013129711151123,
                1.8088637590408325,
                2.6489105224609375
            ],
            "type" : "VEC3"
        },
        {
            "bufferView" : 29,
            "componentType" : 5126,
            "count" : 33,
            "type" : "VEC3"
        },
        {
            "bufferView" : 30,
            "componentType" : 5126,
            "count" : 33,
            "type" : "VEC2"
        },
        {
            "bufferView" : 31,
            "componentType" : 5123,
            "count" : 96,
            "type" : "SCALAR"
        },
        {
            "bufferView" : 32,
            "componentType" : 5126,
            "count" : 11954,
            "max" : [
                1.1827605962753296,
                1.8842122554779053,
                2.53174090385437
            ],
            "min" : [
                -1.1827605962753296,
                -2.443978530664026e-07,
                -2.442452907562256
            ],
            "type" : "VEC3"
        },
        {
            "bufferView" : 33,
            "componentType" : 5126,
            "count" : 11954,
            "type" : "VEC3"
        },
        {
            "bufferView" : 34,
            "componentType" : 5126,
            "count" : 11954,
            "type" : "VEC2"
        },
        {
            "bufferView" : 35,
            "componentType" : 5123,
            "count" : 19452,
            "type" : "SCALAR"
        },
        {
            "bufferView" : 36,
            "componentType" : 5126,
            "count" : 90,
            "max" : [
                0.9103086590766907,
                1.7426289319992065,
                1.1571365594863892
            ],
            "min" : [
                -0.909072995185852,
                1.2480827569961548,
                -2.2392418384552
            ],
            "type" : "VEC3"
        },
        {
            "bufferView" : 37,
            "componentType" : 5126,
            "count" : 90,
            "type" : "VEC3"
        },
        {
            "bufferView" : 38,
            "componentType" : 5126,
            "count" : 90,
            "type" : "VEC2"
        },
        {
            "bufferView" : 39,
            "componentType" : 5123,
            "count" : 270,
            "type" : "SCALAR"
        },
        {
            "bufferView" : 40,
            "componentType" : 5126,
            "count" : 8572,
            "max" : [
                1.2140365839004517,
                3.0151078701019287,
                4.071249008178711
            ],
            "min" : [
                -1.9635734558105469,
                -0.00847778283059597,
                -2.461886405944824
            ],
            "type" : "VEC3"
        },
        {
            "bufferView" : 41,
            "componentType" : 5126,
            "count" : 8572,
            "type" : "VEC3"
        },
        {
            "bufferView" : 42,
            "componentType" : 5126,
            "count" : 8572,
            "type" : "VEC2"
        },
        {
            "bufferView" : 43,
            "componentType" : 5123,
            "count" : 12855,
            "type" : "SCALAR"
        },
        {
            "bufferView" : 44,
            "componentType" : 5126,
            "count" : 32,
            "max" : [
                1.1725928783416748,
                2.190967082977295,
                2.70206618309021
            ],
            "min" : [
                -1.1045894622802734,
                1.5046639442443848,
                -2.357943058013916
            ],
            "type" : "VEC3"
        },
        {
            "bufferView" : 45,
            "componentType" : 5126,
            "count" : 32,
            "type" : "VEC3"
        },
        {
            "bufferView" : 46,
            "componentType" : 5126,
            "count" : 32,
            "type" : "VEC2"
        },
        {
            "bufferView" : 47,
            "componentType" : 5123,
            "count" : 48,
            "type" : "SCALAR"
        }
    ],
    "bufferViews" : [
        {
            "buffer" : 0,
            "byteLength" : 121776,
            "byteOffset" : 0
        },
        {
            "buffer" : 0,
            "byteLength" : 121776,
            "byteOffset" : 121776
        },
        {
            "buffer" : 0,
            "byteLength" : 81184,
            "byteOffset" : 243552
        },
        {
            "buffer" : 0,
            "byteLength" : 32772,
            "byteOffset" : 324736
        },
        {
            "buffer" : 0,
            "byteLength" : 792,
            "byteOffset" : 357508
        },
        {
            "buffer" : 0,
            "byteLength" : 792,
            "byteOffset" : 358300
        },
        {
            "buffer" : 0,
            "byteLength" : 528,
            "byteOffset" : 359092
        },
        {
            "buffer" : 0,
            "byteLength" : 348,
            "byteOffset" : 359620
        },
        {
            "buffer" : 0,
            "byteLength" : 135756,
            "byteOffset" : 359968
        },
        {
            "buffer" : 0,
            "byteLength" : 135756,
            "byteOffset" : 495724
        },
        {
            "buffer" : 0,
            "byteLength" : 90504,
            "byteOffset" : 631480
        },
        {
            "buffer" : 0,
            "byteLength" : 38784,
            "byteOffset" : 721984
        },
        {
            "buffer" : 0,
            "byteLength" : 792,
            "byteOffset" : 760768
        },
        {
            "buffer" : 0,
            "byteLength" : 792,
            "byteOffset" : 761560
        },
        {
            "buffer" : 0,
            "byteLength" : 528,
            "byteOffset" : 762352
        },
        {
            "buffer" : 0,
            "byteLength" : 348,
            "byteOffset" : 762880
        },
        {
            "buffer" : 0,
            "byteLength" : 184956,
            "byteOffset" : 763228
        },
        {
            "buffer" : 0,
            "byteLength" : 184956,
            "byteOffset" : 948184
        },
        {
            "buffer" : 0,
            "byteLength" : 123304,
            "byteOffset" : 1133140
        },
        {
            "buffer" : 0,
            "byteLength" : 53658,
            "byteOffset" : 1256444
        },
        {
            "buffer" : 0,
            "byteLength" : 1320,
            "byteOffset" : 1310104
        },
        {
            "buffer" : 0,
            "byteLength" : 1320,
            "byteOffset" : 1311424
        },
        {
            "buffer" : 0,
            "byteLength" : 880,
            "byteOffset" : 1312744
        },
        {
            "buffer" : 0,
            "byteLength" : 708,
            "byteOffset" : 1313624
        },
        {
            "buffer" : 0,
            "byteLength" : 220548,
            "byteOffset" : 1314332
        },
        {
            "buffer" : 0,
            "byteLength" : 220548,
            "byteOffset" : 1534880
        },
        {
            "buffer" : 0,
            "byteLength" : 147032,
            "byteOffset" : 1755428
        },
        {
            "buffer" : 0,
            "byteLength" : 63036,
            "byteOffset" : 1902460
        },
        {
            "buffer" : 0,
            "byteLength" : 396,
            "byteOffset" : 1965496
        },
        {
            "buffer" : 0,
            "byteLength" : 396,
            "byteOffset" : 1965892
        },
        {
            "buffer" : 0,
            "byteLength" : 264,
            "byteOffset" : 1966288
        },
        {
            "buffer" : 0,
            "byteLength" : 192,
            "byteOffset" : 1966552
        },
        {
            "buffer" : 0,
            "byteLength" : 143448,
            "byteOffset" : 1966744
        },
        {
            "buffer" : 0,
            "byteLength" : 143448,
            "byteOffset" : 2110192
        },
        {
            "buffer" : 0,
            "byteLength" : 95632,
            "byteOffset" : 2253640
        },
        {
            "buffer" : 0,
            "byteLength" : 38904,
            "byteOffset" : 2349272
        },
        {
            "buffer" : 0,
            "byteLength" : 1080,
            "byteOffset" : 2388176
        },
        {
            "buffer" : 0,
            "byteLength" : 1080,
            "byteOffset" : 2389256
        },
        {
            "buffer" : 0,
            "byteLength" : 720,
            "byteOffset" : 2390336
        },
        {
            "buffer" : 0,
            "byteLength" : 540,
            "byteOffset" : 2391056
        },
        {
            "buffer" : 0,
            "byteLength" : 102864,
            "byteOffset" : 2391596
        },
        {
            "buffer" : 0,
            "byteLength" : 102864,
            "byteOffset" : 2494460
        },
        {
            "buffer" : 0,
            "byteLength" : 68576,
            "byteOffset" : 2597324
        },
        {
            "buffer" : 0,
            "byteLength" : 25710,
            "byteOffset" : 2665900
        },
        {
            "buffer" : 0,
            "byteLength" : 384,
            "byteOffset" : 2691612
        },
        {
            "buffer" : 0,
            "byteLength" : 384,
            "byteOffset" : 2691996
        },
        {
            "buffer" : 0,
            "byteLength" : 256,
            "byteOffset" : 2692380
        },
        {
            "buffer" : 0,
            "byteLength" : 96,
            "byteOffset" : 2692636
        }
    ],
    "samplers" : [
        {
            "magFilter" : 9729,
            "minFilter" : 9987
        }
    ],
    "buffers" : [
        {
            "byteLength" : 2692732,
            "uri" : "vehicles.bin"
        }
    ]
}
